<?xml version="1.0" encoding="UTF-8" standalone="no"?>
<svg
   width="457.98947"
   zoomAndPan="magnify"
   viewBox="0 0 343.4921 100.05761"
   height="133.41016"
   preserveAspectRatio="xMidYMid"
   version="1.0"
   id="svg70"
   xmlns="http://www.w3.org/2000/svg"
   xmlns:svg="http://www.w3.org/2000/svg">
  <defs
     id="defs17">
    <clipPath
       id="e05feb2437">
      <path
         d="m 319.5,196.52734 h 33.25781 v 33.26172 H 319.5 Z m 0,0"
         clip-rule="nonzero"
         id="path1" />
    </clipPath>
    <clipPath
       id="7243272d25">
      <path
         d="m 336.12891,196.52734 c -9.1836,0 -16.62891,7.44532 -16.62891,16.62891 0,9.1875 7.44531,16.63281 16.62891,16.63281 9.18359,0 16.6289,-7.44531 16.6289,-16.63281 0,-9.18359 -7.44531,-16.62891 -16.6289,-16.62891 z m 0,0"
         clip-rule="nonzero"
         id="path2" />
    </clipPath>
    <clipPath
       id="02e7f6de7f">
      <path
         d="M 329.00781,204.70312 H 343.25 v 16.91407 h -14.24219 z m 0,0"
         clip-rule="nonzero"
         id="path3" />
    </clipPath>
    <clipPath
       id="6370f535d9">
      <path
         d="m 336.12891,204.70312 c -3.9336,0 -7.1211,3.78516 -7.1211,8.45313 0,4.67187 3.1875,8.45703 7.1211,8.45703 3.93359,0 7.12109,-3.78516 7.12109,-8.45703 0,-4.66797 -3.1875,-8.45313 -7.12109,-8.45313 z m 0,0"
         clip-rule="nonzero"
         id="path4" />
    </clipPath>
    <clipPath
       id="156894a7ff">
      <path
         d="m 345,222 h 16 v 16 h -16 z m 0,0"
         clip-rule="nonzero"
         id="path5" />
    </clipPath>
    <clipPath
       id="d92687e948">
      <path
         d="m 344.77734,225.54297 3.92969,-3.92969 13.19922,13.19922 -3.92969,3.92578 z m 0,0"
         clip-rule="nonzero"
         id="path6" />
    </clipPath>
    <clipPath
       id="a7ae6b3496">
      <path
         d="m 346.74219,223.57812 c 1.08593,-1.08593 2.84375,-1.08593 3.92968,0 l 9.25782,9.25782 c 1.08593,1.08593 1.08593,2.84375 0,3.92968 -1.08594,1.08204 -2.84375,1.08204 -3.92969,0 l -9.25781,-9.25781 c -1.08203,-1.08594 -1.08203,-2.84375 0,-3.92969 z m 0,0"
         clip-rule="nonzero"
         id="path7" />
    </clipPath>
    <clipPath
       id="1801fa89eb">
      <path
         d="m 329,204 h 11 v 13 h -11 z m 0,0"
         clip-rule="nonzero"
         id="path8" />
    </clipPath>
    <clipPath
       id="b2dd71903e">
      <path
         d="m 329.00781,213.8125 4.73438,-9.37109 6.02343,3.03906 -4.73046,9.375 z m 0,0"
         clip-rule="nonzero"
         id="path9" />
    </clipPath>
    <clipPath
       id="89c387af57">
      <path
         d="m 325.74219,202.48828 27.69531,-1.74609 1.74609,27.69531 -27.69531,1.74609 z m 0,0"
         clip-rule="nonzero"
         id="path10" />
    </clipPath>
    <clipPath
       id="11e5c82976">
      <path
         d="m 330,206 h 7 v 9 h -7 z m 0,0"
         clip-rule="nonzero"
         id="path11" />
    </clipPath>
    <clipPath
       id="98ee9f8dfa">
      <path
         d="m 329.00781,213.8125 4.73438,-9.37109 6.02343,3.03906 -4.73046,9.375 z m 0,0"
         clip-rule="nonzero"
         id="path12" />
    </clipPath>
    <clipPath
       id="82a5f208a4">
      <path
         d="m 325.74219,202.48828 27.69531,-1.74609 1.74609,27.69531 -27.69531,1.74609 z m 0,0"
         clip-rule="nonzero"
         id="path13" />
    </clipPath>
    <clipPath
       id="c66cc4a4b0">
      <path
         d="m 47.292969,137.51953 h 13.128906 v 12.875 H 47.292969 Z m 0,0"
         clip-rule="nonzero"
         id="path14" />
    </clipPath>
    <clipPath
       id="442080f85d">
      <path
         d="m 53.839844,137.51953 c -3.613282,0 -6.546875,2.88281 -6.546875,6.4375 0,3.55469 2.933593,6.4375 6.546875,6.4375 3.613281,0 6.542968,-2.88281 6.542968,-6.4375 0,-3.55469 -2.929687,-6.4375 -6.542968,-6.4375 z m 0,0"
         clip-rule="nonzero"
         id="path15" />
    </clipPath>
    <clipPath
       id="7f8da3b170">
      <path
         d="m 142.69531,137.51953 h 13.125 v 12.875 h -13.125 z m 0,0"
         clip-rule="nonzero"
         id="path16" />
    </clipPath>
    <clipPath
       id="b2b039d134">
      <path
         d="m 149.23828,137.51953 c -3.61328,0 -6.54297,2.88281 -6.54297,6.4375 0,3.55469 2.92969,6.4375 6.54297,6.4375 3.61328,0 6.54297,-2.88281 6.54297,-6.4375 0,-3.55469 -2.92969,-6.4375 -6.54297,-6.4375 z m 0,0"
         clip-rule="nonzero"
         id="path17" />
    </clipPath>
  </defs>
  <g
     clip-path="url(#e05feb2437)"
     id="g19"
     transform="translate(-17.252037,-137.51953)">
    <g
       clip-path="url(#7243272d25)"
       id="g18">
      <path
         fill="#f1d302"
         d="m 319.5,196.52734 h 33.25781 v 33.26172 H 319.5 Z m 0,0"
         fill-opacity="1"
         fill-rule="nonzero"
         id="path18" />
    </g>
  </g>
  <g
     clip-path="url(#02e7f6de7f)"
     id="g21"
     transform="translate(-17.252037,-137.51953)">
    <g
       clip-path="url(#6370f535d9)"
       id="g20">
      <path
         fill="#235890"
         d="M 329.00781,204.70312 H 343.25 v 16.91407 h -14.24219 z m 0,0"
         fill-opacity="1"
         fill-rule="nonzero"
         id="path19" />
    </g>
  </g>
  <g
     clip-path="url(#156894a7ff)"
     id="g24"
     transform="translate(-17.252037,-137.51953)">
    <g
       clip-path="url(#d92687e948)"
       id="g23">
      <g
         clip-path="url(#a7ae6b3496)"
         id="g22">
        <path
           fill="#f1d302"
           d="m 344.77734,225.54297 3.92969,-3.92969 13.18359,13.18359 -3.92968,3.92969 z m 0,0"
           fill-opacity="1"
           fill-rule="nonzero"
           id="path21" />
      </g>
    </g>
  </g>
  <g
     clip-path="url(#1801fa89eb)"
     id="g27"
     transform="translate(-17.252037,-137.51953)">
    <g
       clip-path="url(#b2dd71903e)"
       id="g26">
      <g
         clip-path="url(#89c387af57)"
         id="g25">
        <path
           fill="#ededed"
           d="m 336.86719,201.83594 c -6.16407,0.45703 -10.79297,5.82812 -10.33594,11.99609 0.45703,6.16406 5.82812,10.79297 11.99219,10.33594 2.27734,-0.16797 4.44922,-1.03125 6.22265,-2.46875 l 6.78516,5.98047 c 0.77734,0.67187 1.95312,0.58984 2.62891,-0.1875 0.66796,-0.76563 0.59375,-1.92969 -0.16407,-2.60938 l -6.78515,-5.98047 c 3.26172,-5.2539 1.64062,-12.15625 -3.61328,-15.41406 -2.01172,-1.24609 -4.36719,-1.82422 -6.73047,-1.65234 z m -0.0117,1.94531 c 5.08984,-0.46484 9.58984,3.28125 10.05078,8.37109 0.008,0.0859 0.0156,0.17578 0.0234,0.26563 0.32422,5.09765 -3.54688,9.49219 -8.64453,9.82031 -5.09766,0.32031 -9.49219,-3.54687 -9.81641,-8.64453 0,-0.004 -0.004,-0.008 -0.004,-0.008 -0.32031,-5.00391 3.40235,-9.35157 8.39063,-9.80469 z m 0,0"
           fill-opacity="1"
           fill-rule="nonzero"
           id="path24" />
      </g>
    </g>
  </g>
  <g
     clip-path="url(#11e5c82976)"
     id="g30"
     transform="translate(-17.252037,-137.51953)">
    <g
       clip-path="url(#98ee9f8dfa)"
       id="g29">
      <g
         clip-path="url(#82a5f208a4)"
         id="g28">
        <path
           fill="#ededed"
           d="m 334.77344,206.3125 c 0.49218,-0.21094 1.0664,0.0156 1.28125,0.50781 0.21093,0.49219 -0.0117,1.0625 -0.5,1.27735 -2.0625,0.90234 -3.33985,2.99609 -3.19922,5.24218 0.0351,0.53516 -0.375,1 -0.91016,1.03125 -0.53906,0.0352 -1,-0.37109 -1.03515,-0.91015 -0.19141,-3.0625 1.55078,-5.91797 4.36328,-7.14844 z m 0,0"
           fill-opacity="1"
           fill-rule="nonzero"
           id="path27" />
      </g>
    </g>
  </g>
  <g
     fill="#000000"
     fill-opacity="1"
     id="g33"
     transform="translate(-17.252037,-137.51953)">
    <g
       transform="translate(111.9245,228.14624)"
       id="g32">
      <g
         id="g31">
        <path
           d="M 39.984375,0 H 30.0625 L 13.5,-25.09375 V 0 H 3.59375 V -40.671875 H 13.5 l 16.5625,25.203125 v -25.203125 h 9.921875 z m 0,0"
           id="path30" />
      </g>
    </g>
  </g>
  <g
     fill="#000000"
     fill-opacity="1"
     id="g36"
     transform="translate(-17.252037,-137.51953)">
    <g
       transform="translate(155.48462,228.14624)"
       id="g35">
      <g
         id="g34">
        <path
           d="m 34.0625,-16.6875 c 0,0.929688 -0.05859,1.890625 -0.171875,2.890625 H 11.46875 c 0.15625,2.011719 0.800781,3.546875 1.9375,4.609375 1.144531,1.0625 2.546875,1.59375 4.203125,1.59375 2.476563,0 4.195313,-1.039062 5.15625,-3.125 H 33.3125 c -0.542969,2.125 -1.515625,4.039062 -2.921875,5.734375 -1.40625,1.699219 -3.171875,3.03125 -5.296875,4 -2.125,0.96875 -4.507812,1.453125 -7.140625,1.453125 C 14.785156,0.46875 11.96875,-0.207031 9.5,-1.5625 7.03125,-2.914062 5.097656,-4.847656 3.703125,-7.359375 2.316406,-9.867188 1.625,-12.804688 1.625,-16.171875 c 0,-3.351563 0.679688,-6.285156 2.046875,-8.796875 1.375,-2.507812 3.296875,-4.441406 5.765625,-5.796875 2.476562,-1.351563 5.316406,-2.03125 8.515625,-2.03125 3.132813,0 5.914063,0.65625 8.34375,1.96875 2.4375,1.3125 4.335937,3.1875 5.703125,5.625 1.375,2.4375 2.0625,5.277344 2.0625,8.515625 z m -10.140625,-2.609375 c 0,-1.695313 -0.578125,-3.046875 -1.734375,-4.046875 -1.15625,-1.007812 -2.605469,-1.515625 -4.34375,-1.515625 -1.65625,0 -3.058594,0.484375 -4.203125,1.453125 -1.136719,0.96875 -1.839844,2.339844 -2.109375,4.109375 z m 0,0"
           id="path33" />
      </g>
    </g>
  </g>
  <g
     fill="#000000"
     fill-opacity="1"
     id="g39"
     transform="translate(-17.252037,-137.51953)">
    <g
       transform="translate(191.16685,228.14624)"
       id="g38">
      <g
         id="g37">
        <path
           d="m 34.0625,-16.6875 c 0,0.929688 -0.05859,1.890625 -0.171875,2.890625 H 11.46875 c 0.15625,2.011719 0.800781,3.546875 1.9375,4.609375 1.144531,1.0625 2.546875,1.59375 4.203125,1.59375 2.476563,0 4.195313,-1.039062 5.15625,-3.125 H 33.3125 c -0.542969,2.125 -1.515625,4.039062 -2.921875,5.734375 -1.40625,1.699219 -3.171875,3.03125 -5.296875,4 -2.125,0.96875 -4.507812,1.453125 -7.140625,1.453125 C 14.785156,0.46875 11.96875,-0.207031 9.5,-1.5625 7.03125,-2.914062 5.097656,-4.847656 3.703125,-7.359375 2.316406,-9.867188 1.625,-12.804688 1.625,-16.171875 c 0,-3.351563 0.679688,-6.285156 2.046875,-8.796875 1.375,-2.507812 3.296875,-4.441406 5.765625,-5.796875 2.476562,-1.351563 5.316406,-2.03125 8.515625,-2.03125 3.132813,0 5.914063,0.65625 8.34375,1.96875 2.4375,1.3125 4.335937,3.1875 5.703125,5.625 1.375,2.4375 2.0625,5.277344 2.0625,8.515625 z m -10.140625,-2.609375 c 0,-1.695313 -0.578125,-3.046875 -1.734375,-4.046875 -1.15625,-1.007812 -2.605469,-1.515625 -4.34375,-1.515625 -1.65625,0 -3.058594,0.484375 -4.203125,1.453125 -1.136719,0.96875 -1.839844,2.339844 -2.109375,4.109375 z m 0,0"
           id="path36" />
      </g>
    </g>
  </g>
  <g
     fill="#000000"
     fill-opacity="1"
     id="g42"
     transform="translate(-17.252037,-137.51953)">
    <g
       transform="translate(226.84908,228.14624)"
       id="g41">
      <g
         id="g40">
        <path
           d="m 1.625,-16.21875 c 0,-3.320312 0.625,-6.238281 1.875,-8.75 1.257812,-2.507812 2.96875,-4.441406 5.125,-5.796875 2.164062,-1.351563 4.582031,-2.03125 7.25,-2.03125 2.125,0 4.0625,0.449219 5.8125,1.34375 1.757812,0.886719 3.144531,2.078125 4.15625,3.578125 v -15 H 35.75 V 0 h -9.90625 v -4.640625 c -0.929688,1.554687 -2.25,2.792969 -3.96875,3.71875 -1.71875,0.92578125 -3.71875,1.390625 -6,1.390625 -2.667969,0 -5.085938,-0.6875 -7.25,-2.0625 C 6.46875,-2.96875 4.757812,-4.914062 3.5,-7.4375 2.25,-9.96875 1.625,-12.894531 1.625,-16.21875 Z m 24.21875,0.04687 c 0,-2.46875 -0.6875,-4.414063 -2.0625,-5.84375 -1.375,-1.425781 -3.046875,-2.140625 -5.015625,-2.140625 -1.96875,0 -3.640625,0.703125 -5.015625,2.109375 -1.367188,1.40625 -2.046875,3.351563 -2.046875,5.828125 0,2.46875 0.679687,4.429688 2.046875,5.875 1.375,1.449219 3.046875,2.171875 5.015625,2.171875 1.96875,0 3.640625,-0.710937 5.015625,-2.140625 1.375,-1.425781 2.0625,-3.378906 2.0625,-5.859375 z m 0,0"
           id="path39" />
      </g>
    </g>
  </g>
  <g
     fill="#000000"
     fill-opacity="1"
     id="g45"
     transform="translate(-17.252037,-137.51953)">
    <g
       transform="translate(266.18062,228.14624)"
       id="g44">
      <g
         id="g43">
        <path
           d="M 49.65625,-40.671875 V 0 H 39.75 V -24.390625 L 30.65625,0 h -8 L 13.5,-24.453125 V 0 H 3.59375 v -40.671875 h 11.703125 l 11.40625,28.15625 L 38,-40.671875 Z m 0,0"
           id="path42" />
      </g>
    </g>
  </g>
  <g
     fill="#000000"
     fill-opacity="1"
     id="g48"
     transform="translate(-17.252037,-137.51953)">
    <g
       transform="translate(13.658287,185.11012)"
       id="g47">
      <g
         id="g46">
        <path
           d="m 30.0625,-40.671875 v 7.9375 H 13.5 v 8.578125 h 12.390625 v 7.703125 H 13.5 V 0 H 3.59375 v -40.671875 z m 0,0"
           id="path45" />
      </g>
    </g>
  </g>
  <g
     fill="#000000"
     fill-opacity="1"
     id="g51"
     transform="translate(-17.252037,-137.51953)">
    <g
       transform="translate(45.343646,185.11012)"
       id="g50">
      <g
         id="g49">
        <path
           d="m 8.578125,-35.6875 c -1.742187,0 -3.164063,-0.507812 -4.265625,-1.53125 -1.09375,-1.03125 -1.640625,-2.296875 -1.640625,-3.796875 0,-1.550781 0.546875,-2.835937 1.640625,-3.859375 1.101562,-1.019531 2.523438,-1.53125 4.265625,-1.53125 1.695313,0 3.09375,0.511719 4.1875,1.53125 1.101563,1.023438 1.65625,2.308594 1.65625,3.859375 0,1.5 -0.554687,2.765625 -1.65625,3.796875 -1.09375,1.023438 -2.492187,1.53125 -4.1875,1.53125 z M 13.5,-32.328125 V 0 H 3.59375 v -32.328125 z m 0,0"
           id="path48" />
      </g>
    </g>
  </g>
  <g
     fill="#000000"
     fill-opacity="1"
     id="g54"
     transform="translate(-17.252037,-137.51953)">
    <g
       transform="translate(62.431722,185.11012)"
       id="g53">
      <g
         id="g52">
        <path
           d="m 23.296875,-32.671875 c 3.78125,0 6.800781,1.230469 9.0625,3.6875 2.257813,2.449219 3.390625,5.8125 3.390625,10.09375 V 0 h -9.859375 v -17.5625 c 0,-2.15625 -0.5625,-3.832031 -1.6875,-5.03125 -1.117187,-1.195312 -2.617187,-1.796875 -4.5,-1.796875 -1.898437,0 -3.40625,0.601563 -4.53125,1.796875 C 14.054688,-21.394531 13.5,-19.71875 13.5,-17.5625 V 0 H 3.59375 V -32.328125 H 13.5 v 4.28125 c 1,-1.425781 2.347656,-2.550781 4.046875,-3.375 1.707031,-0.832031 3.625,-1.25 5.75,-1.25 z m 0,0"
           id="path51" />
      </g>
    </g>
  </g>
  <g
     fill="#000000"
     fill-opacity="1"
     id="g57"
     transform="translate(-17.252037,-137.51953)">
    <g
       transform="translate(101.47364,185.11012)"
       id="g56">
      <g
         id="g55">
        <path
           d="m 1.625,-16.21875 c 0,-3.320312 0.625,-6.238281 1.875,-8.75 1.257812,-2.507812 2.96875,-4.441406 5.125,-5.796875 2.164062,-1.351563 4.582031,-2.03125 7.25,-2.03125 2.125,0 4.0625,0.449219 5.8125,1.34375 1.757812,0.886719 3.144531,2.078125 4.15625,3.578125 v -15 H 35.75 V 0 h -9.90625 v -4.640625 c -0.929688,1.554687 -2.25,2.792969 -3.96875,3.71875 -1.71875,0.92578125 -3.71875,1.390625 -6,1.390625 -2.667969,0 -5.085938,-0.6875 -7.25,-2.0625 C 6.46875,-2.96875 4.757812,-4.914062 3.5,-7.4375 2.25,-9.96875 1.625,-12.894531 1.625,-16.21875 Z m 24.21875,0.04687 c 0,-2.46875 -0.6875,-4.414063 -2.0625,-5.84375 -1.375,-1.425781 -3.046875,-2.140625 -5.015625,-2.140625 -1.96875,0 -3.640625,0.703125 -5.015625,2.109375 -1.367188,1.40625 -2.046875,3.351563 -2.046875,5.828125 0,2.46875 0.679687,4.429688 2.046875,5.875 1.375,1.449219 3.046875,2.171875 5.015625,2.171875 1.96875,0 3.640625,-0.710937 5.015625,-2.140625 1.375,-1.425781 2.0625,-3.378906 2.0625,-5.859375 z m 0,0"
           id="path54" />
      </g>
    </g>
  </g>
  <g
     fill="#000000"
     fill-opacity="1"
     id="g60"
     transform="translate(-17.252037,-137.51953)">
    <g
       transform="translate(140.80518,185.11012)"
       id="g59">
      <g
         id="g58">
        <path
           d="m 8.578125,-35.6875 c -1.742187,0 -3.164063,-0.507812 -4.265625,-1.53125 -1.09375,-1.03125 -1.640625,-2.296875 -1.640625,-3.796875 0,-1.550781 0.546875,-2.835937 1.640625,-3.859375 1.101562,-1.019531 2.523438,-1.53125 4.265625,-1.53125 1.695313,0 3.09375,0.511719 4.1875,1.53125 1.101563,1.023438 1.65625,2.308594 1.65625,3.859375 0,1.5 -0.554687,2.765625 -1.65625,3.796875 -1.09375,1.023438 -2.492187,1.53125 -4.1875,1.53125 z M 13.5,-32.328125 V 0 H 3.59375 v -32.328125 z m 0,0"
           id="path57" />
      </g>
    </g>
  </g>
  <g
     fill="#000000"
     fill-opacity="1"
     id="g63"
     transform="translate(-17.252037,-137.51953)">
    <g
       transform="translate(157.89326,185.11012)"
       id="g62">
      <g
         id="g61">
        <path
           d="m 23.296875,-32.671875 c 3.78125,0 6.800781,1.230469 9.0625,3.6875 2.257813,2.449219 3.390625,5.8125 3.390625,10.09375 V 0 h -9.859375 v -17.5625 c 0,-2.15625 -0.5625,-3.832031 -1.6875,-5.03125 -1.117187,-1.195312 -2.617187,-1.796875 -4.5,-1.796875 -1.898437,0 -3.40625,0.601563 -4.53125,1.796875 C 14.054688,-21.394531 13.5,-19.71875 13.5,-17.5625 V 0 H 3.59375 V -32.328125 H 13.5 v 4.28125 c 1,-1.425781 2.347656,-2.550781 4.046875,-3.375 1.707031,-0.832031 3.625,-1.25 5.75,-1.25 z m 0,0"
           id="path60" />
      </g>
    </g>
  </g>
  <g
     fill="#000000"
     fill-opacity="1"
     id="g66"
     transform="translate(-17.252037,-137.51953)">
    <g
       transform="translate(196.93518,185.11012)"
       id="g65">
      <g
         id="g64">
        <path
           d="m 15.875,-32.796875 c 2.28125,0 4.28125,0.464844 6,1.390625 1.71875,0.929688 3.039062,2.148438 3.96875,3.65625 v -4.578125 H 35.75 V -0.0625 c 0,2.976562 -0.589844,5.671875 -1.765625,8.078125 -1.179687,2.414063 -2.976563,4.335937 -5.390625,5.765625 -2.417969,1.4375 -5.421875,2.15625 -9.015625,2.15625 -4.78125,0 -8.664063,-1.132812 -11.640625,-3.390625 C 4.957031,10.285156 3.257812,7.222656 2.84375,3.359375 H 12.625 C 12.9375,4.597656 13.671875,5.570312 14.828125,6.28125 15.984375,7 17.414062,7.359375 19.125,7.359375 c 2.039062,0 3.671875,-0.589844 4.890625,-1.765625 1.21875,-1.179688 1.828125,-3.0625 1.828125,-5.65625 v -4.578125 c -0.96875,1.511719 -2.304688,2.742187 -4,3.6875 -1.699219,0.94921875 -3.6875,1.421875 -5.96875,1.421875 -2.667969,0 -5.085938,-0.6875 -7.25,-2.0625 C 6.46875,-2.96875 4.757812,-4.914062 3.5,-7.4375 2.25,-9.96875 1.625,-12.894531 1.625,-16.21875 c 0,-3.320312 0.625,-6.238281 1.875,-8.75 1.257812,-2.507812 2.96875,-4.441406 5.125,-5.796875 2.164062,-1.351563 4.582031,-2.03125 7.25,-2.03125 z m 9.96875,16.625 c 0,-2.46875 -0.6875,-4.414063 -2.0625,-5.84375 -1.375,-1.425781 -3.046875,-2.140625 -5.015625,-2.140625 -1.96875,0 -3.640625,0.703125 -5.015625,2.109375 -1.367188,1.40625 -2.046875,3.351563 -2.046875,5.828125 0,2.46875 0.679687,4.429688 2.046875,5.875 1.375,1.449219 3.046875,2.171875 5.015625,2.171875 1.96875,0 3.640625,-0.710937 5.015625,-2.140625 1.375,-1.425781 2.0625,-3.378906 2.0625,-5.859375 z m 0,0"
           id="path63" />
      </g>
    </g>
  </g>
  <g
     clip-path="url(#c66cc4a4b0)"
     id="g68"
     transform="translate(-17.252037,-137.51953)">
    <g
       clip-path="url(#442080f85d)"
       id="g67">
      <path
         fill="#f1d302"
         d="m 47.292969,137.51953 h 13.078125 v 12.875 H 47.292969 Z m 0,0"
         fill-opacity="1"
         fill-rule="nonzero"
         id="path66" />
    </g>
  </g>
  <g
     clip-path="url(#7f8da3b170)"
     id="g70"
     transform="translate(-17.252037,-137.51953)">
    <g
       clip-path="url(#b2b039d134)"
       id="g69">
      <path
         fill="#235890"
         d="m 142.69531,137.51953 h 13.07813 v 12.875 h -13.07813 z m 0,0"
         fill-opacity="1"
         fill-rule="nonzero"
         id="path68" />
    </g>
  </g>
</svg>
