<svg xmlns="http://www.w3.org/2000/svg" xmlns:xlink="http://www.w3.org/1999/xlink" width="500" zoomAndPan="magnify" viewBox="0 0 375 374.999991" height="500" preserveAspectRatio="xMidYMid meet" version="1.0"><defs><clipPath id="1566d3e974"><path d="M 38.457031 39.820312 L 273.066406 39.820312 L 273.066406 274.429688 L 38.457031 274.429688 Z M 38.457031 39.820312 " clip-rule="nonzero"/></clipPath><clipPath id="0840239e3f"><path d="M 155.761719 39.820312 C 90.976562 39.820312 38.457031 92.335938 38.457031 157.125 C 38.457031 221.910156 90.976562 274.429688 155.761719 274.429688 C 220.546875 274.429688 273.066406 221.910156 273.066406 157.125 C 273.066406 92.335938 220.546875 39.820312 155.761719 39.820312 Z M 155.761719 39.820312 " clip-rule="nonzero"/></clipPath><clipPath id="36c0cac999"><path d="M 105.523438 97.46875 L 206 97.46875 L 206 216.785156 L 105.523438 216.785156 Z M 105.523438 97.46875 " clip-rule="nonzero"/></clipPath><clipPath id="b4a8288120"><path d="M 155.761719 97.46875 C 128.015625 97.46875 105.523438 124.179688 105.523438 157.125 C 105.523438 190.070312 128.015625 216.777344 155.761719 216.777344 C 183.507812 216.777344 206 190.070312 206 157.125 C 206 124.179688 183.507812 97.46875 155.761719 97.46875 Z M 155.761719 97.46875 " clip-rule="nonzero"/></clipPath><clipPath id="baa9300d7a"><path d="M 224 224 L 330 224 L 330 330 L 224 330 Z M 224 224 " clip-rule="nonzero"/></clipPath><clipPath id="b357c50519"><path d="M 216.78125 244.484375 L 244.496094 216.773438 L 337.589844 309.867188 L 309.878906 337.578125 Z M 216.78125 244.484375 " clip-rule="nonzero"/></clipPath><clipPath id="d36a8cf5c9"><path d="M 230.636719 230.628906 C 238.292969 222.976562 250.699219 222.976562 258.351562 230.628906 L 323.648438 295.925781 C 331.300781 303.578125 331.300781 315.984375 323.648438 323.636719 C 315.996094 331.289062 303.589844 331.289062 295.9375 323.636719 L 230.636719 258.339844 C 222.984375 250.6875 222.984375 238.28125 230.636719 230.628906 Z M 230.636719 230.628906 " clip-rule="nonzero"/></clipPath><clipPath id="3d2399b4e3"><path d="M 105 95 L 182 95 L 182 184 L 105 184 Z M 105 95 " clip-rule="nonzero"/></clipPath><clipPath id="1804e466e5"><path d="M 105.539062 161.746094 L 138.917969 95.628906 L 181.425781 117.085938 L 148.042969 183.207031 Z M 105.539062 161.746094 " clip-rule="nonzero"/></clipPath><clipPath id="fb297b95e6"><path d="M 82.496094 81.871094 L 277.855469 69.546875 L 290.179688 264.90625 L 94.820312 277.230469 Z M 82.496094 81.871094 " clip-rule="nonzero"/></clipPath><clipPath id="8a55587809"><path d="M 115 108 L 156 108 L 156 166 L 115 166 Z M 115 108 " clip-rule="nonzero"/></clipPath><clipPath id="f2603a23d8"><path d="M 105.539062 161.746094 L 138.917969 95.628906 L 181.425781 117.085938 L 148.042969 183.207031 Z M 105.539062 161.746094 " clip-rule="nonzero"/></clipPath><clipPath id="3db2621cfa"><path d="M 82.496094 81.871094 L 277.855469 69.546875 L 290.179688 264.90625 L 94.820312 277.230469 Z M 82.496094 81.871094 " clip-rule="nonzero"/></clipPath></defs><g clip-path="url(#1566d3e974)"><g clip-path="url(#0840239e3f)"><path fill="#f1d302" d="M 38.457031 39.820312 L 273.066406 39.820312 L 273.066406 274.429688 L 38.457031 274.429688 Z M 38.457031 39.820312 " fill-opacity="1" fill-rule="nonzero"/></g></g><g clip-path="url(#36c0cac999)"><g clip-path="url(#b4a8288120)"><path fill="#235890" d="M 105.523438 97.46875 L 206 97.46875 L 206 216.785156 L 105.523438 216.785156 Z M 105.523438 97.46875 " fill-opacity="1" fill-rule="nonzero"/></g></g><g clip-path="url(#baa9300d7a)"><g clip-path="url(#b357c50519)"><g clip-path="url(#d36a8cf5c9)"><path fill="#f1d302" d="M 216.78125 244.484375 L 244.496094 216.773438 L 337.480469 309.757812 L 309.769531 337.472656 Z M 216.78125 244.484375 " fill-opacity="1" fill-rule="nonzero"/></g></g></g><g clip-path="url(#3d2399b4e3)"><g clip-path="url(#1804e466e5)"><g clip-path="url(#fb297b95e6)"><path fill="#ededed" d="M 160.984375 77.269531 C 117.488281 80.492188 84.839844 118.371094 88.0625 161.871094 C 91.285156 205.363281 129.164062 238.015625 172.664062 234.789062 C 188.726562 233.601562 204.042969 227.523438 216.558594 217.378906 L 264.417969 259.546875 C 269.894531 264.308594 278.199219 263.730469 282.960938 258.25 C 287.675781 252.828125 287.15625 244.617188 281.800781 239.820312 L 233.941406 197.652344 C 256.933594 160.589844 245.519531 111.902344 208.457031 88.910156 C 194.257812 80.113281 177.640625 76.03125 160.984375 77.269531 Z M 160.898438 90.96875 C 196.78125 87.695312 228.523438 114.128906 231.796875 150.019531 C 231.851562 150.648438 231.90625 151.28125 231.945312 151.910156 C 234.226562 187.871094 206.925781 218.875 170.96875 221.164062 C 135.007812 223.445312 104.003906 196.148438 101.71875 160.1875 C 101.714844 160.167969 101.714844 160.152344 101.714844 160.128906 C 99.449219 124.851562 125.6875 94.179688 160.898438 90.96875 Z M 160.898438 90.96875 " fill-opacity="1" fill-rule="nonzero"/></g></g></g><g clip-path="url(#8a55587809)"><g clip-path="url(#f2603a23d8)"><g clip-path="url(#3db2621cfa)"><path fill="#ededed" d="M 146.203125 108.839844 C 149.6875 107.339844 153.726562 108.945312 155.230469 112.429688 C 156.71875 115.886719 155.148438 119.902344 151.703125 121.429688 C 137.160156 127.789062 128.144531 142.5625 129.140625 158.402344 C 129.382812 162.191406 126.503906 165.453125 122.71875 165.695312 C 118.933594 165.933594 115.671875 163.058594 115.433594 159.269531 C 114.074219 137.664062 126.367188 117.511719 146.203125 108.839844 Z M 146.203125 108.839844 " fill-opacity="1" fill-rule="nonzero"/></g></g></g></svg>